<svg viewBox="0 0 16 16" fill="none" xmlns="http://www.w3.org/2000/svg">
<path d="M0.30896 5.57193C0.30896 5.29579 0.532818 5.07193 0.80896 5.07193H5.30896V10.0719H0.80896C0.532818 10.0719 0.30896 9.84807 0.30896 9.57193V5.57193Z" fill="#031A98"/>
<rect x="5.30896" y="5.07193" width="5" height="5" fill="#051DFE"/>
<path d="M5.30896 10.0719H10.309V14.5719C10.309 14.8481 10.0851 15.0719 9.80896 15.0719H5.80896C5.53282 15.0719 5.30896 14.8481 5.30896 14.5719V10.0719Z" fill="#031A98"/>
<path d="M10.309 5.07193H14.809C15.0851 5.07193 15.309 5.29579 15.309 5.57193V9.57193C15.309 9.84807 15.0851 10.0719 14.809 10.0719H10.309V5.07193Z" fill="#215FFF"/>
<path d="M5.30896 0.57193C5.30896 0.295788 5.53282 0.0719299 5.80896 0.0719299H9.80896C10.0851 0.0719299 10.309 0.295788 10.309 0.57193V5.07193H5.30896V0.57193Z" fill="#215FFF"/>
</svg>
