<svg width="316" height="315" viewBox="0 0 316 315" fill="none" xmlns="http://www.w3.org/2000/svg">
<path d="M293.968 78.7291C250.612 3.63412 154.584 -22.0969 79.4948 21.2671C4.39976 64.6171 -21.3322 160.641 22.0318 235.733C65.3818 310.828 161.407 336.563 236.497 293.203C311.593 249.838 337.337 153.819 293.968 78.7291ZM220.8 266C160.733 300.692 83.9058 280.106 49.2238 220.027C14.5338 159.96 35.1268 83.1341 95.1958 48.4591C155.267 13.7691 232.09 34.3531 266.774 94.4301C301.459 154.506 280.872 231.316 220.8 266ZM214.521 150.851L132.307 102.902C124.815 98.5281 118.772 102.025 118.814 110.691L119.235 205.865C119.273 214.529 125.39 218.056 132.904 213.716L214.489 166.613C221.995 162.281 222.011 155.225 214.521 150.851Z" fill="#031A98"/>
</svg>
